HIERARCHY
ROOT Hips
{
	OFFSET 54.398102 -12.398015 95.764297
	CHANNELS 6 Xposition Yposition Zposition Xrotation Yrotation Zrotation
	JOINT spine
	{
		OFFSET 0.000000 -0.458069 7.965683
		CHANNELS 3 Xrotation Yrotation Zrotation
		JOINT spine1
		{
			OFFSET 0.000000 -0.000001 10.243103
			CHANNELS 3 Xrotation Yrotation Zrotation
			JOINT spine2
			{
				OFFSET 0.000000 -0.000002 9.814751
				CHANNELS 3 Xrotation Yrotation Zrotation
				JOINT Neck
				{
					OFFSET 0.000000 -1.201384 25.198601
					CHANNELS 3 Xrotation Yrotation Zrotation
					JOINT Head
					{
						OFFSET 0.000000 -0.000002 7.613144
						CHANNELS 3 Xrotation Yrotation Zrotation
						End Site
						{
							OFFSET 0.000000 6.077327 18.428101
						}
					}
				}
				JOINT RightShoulder
				{
					OFFSET -4.132698 0.575449 10.599205
					CHANNELS 3 Xrotation Yrotation Zrotation
					JOINT RightArm
					{
						OFFSET 0.000000 -0.000002 13.901794
						CHANNELS 3 Xrotation Yrotation Zrotation
						JOINT RightArmRoll
						{
							OFFSET 0.000000 -0.000002 7.017883
							CHANNELS 3 Xrotation Yrotation Zrotation
							JOINT RightForeArm
							{
								OFFSET 0.000000 -0.000003 20.440598
								CHANNELS 3 Xrotation Yrotation Zrotation
								JOINT RightForeArmRoll
								{
									OFFSET 0.000000 -0.000001 7.875153
									CHANNELS 3 Xrotation Yrotation Zrotation
									JOINT RightHand
									{
										OFFSET 0.000000 -0.000003 15.803696
										CHANNELS 3 Xrotation Yrotation Zrotation
										End Site
										{
											OFFSET 0.000000 0.000000 0.100006
										}
									}
								}
							}
						}
					}
				}
				JOINT LeftShoulder
				{
					OFFSET 4.132698 0.575449 10.599205
					CHANNELS 3 Xrotation Yrotation Zrotation
					JOINT LeftArm
					{
						OFFSET 0.000000 -0.000002 13.901794
						CHANNELS 3 Xrotation Yrotation Zrotation
						JOINT LeftArmRoll
						{
							OFFSET 0.000000 -0.000002 7.017883
							CHANNELS 3 Xrotation Yrotation Zrotation
							JOINT LeftForeArm
							{
								OFFSET 0.000000 -0.000003 20.440598
								CHANNELS 3 Xrotation Yrotation Zrotation
								JOINT LeftForeArmRoll
								{
									OFFSET 0.000000 -0.000001 7.875153
									CHANNELS 3 Xrotation Yrotation Zrotation
									JOINT LeftHand
									{
										OFFSET 0.000000 -0.000003 15.803696
										CHANNELS 3 Xrotation Yrotation Zrotation
										End Site
										{
											OFFSET 0.000000 0.000000 0.100006
										}
									}
								}
							}
						}
					}
				}
			}
		}
	}
	JOINT RightUpLeg
	{
		OFFSET -7.060478 1.086100 -1.294701
		CHANNELS 3 Xrotation Yrotation Zrotation
		JOINT RightUpLegRoll
		{
			OFFSET 0.000000 -0.000003 18.530800
			CHANNELS 3 Xrotation Yrotation Zrotation
			JOINT RightLeg
			{
				OFFSET 0.000000 0.000004 -22.947601
				CHANNELS 3 Xrotation Yrotation Zrotation
				JOINT RightLegRoll
				{
					OFFSET 0.000000 -0.000004 23.022598
					CHANNELS 3 Xrotation Yrotation Zrotation
					JOINT RightFoot
					{
						OFFSET 0.000000 -0.000004 19.162506
						CHANNELS 3 Xrotation Yrotation Zrotation
						JOINT RightToeBase
						{
							OFFSET 0.000000 -0.000002 16.018799
							CHANNELS 3 Xrotation Yrotation Zrotation
							End Site
							{
								OFFSET 0.006790 0.894205 7.757828
							}
						}
					}
				}
			}
		}
	}
	JOINT LeftUpLeg
	{
		OFFSET 7.060478 1.086100 -1.294701
		CHANNELS 3 Xrotation Yrotation Zrotation
		JOINT LeftUpLegRoll
		{
			OFFSET 0.000000 -0.000003 18.530899
			CHANNELS 3 Xrotation Yrotation Zrotation
			JOINT LeftLeg
			{
				OFFSET 0.000000 -0.000004 22.947502
				CHANNELS 3 Xrotation Yrotation Zrotation
				JOINT LeftLegRoll
				{
					OFFSET 0.000000 -0.000004 23.235504
					CHANNELS 3 Xrotation Yrotation Zrotation
					JOINT LeftFoot
					{
						OFFSET 0.000000 -0.000003 18.949600
						CHANNELS 3 Xrotation Yrotation Zrotation
						JOINT LeftToeBase
						{
							OFFSET 0.000000 -0.000003 16.018799
							CHANNELS 3 Xrotation Yrotation Zrotation
							End Site
							{
								OFFSET -0.030430 0.894206 7.757828
							}
						}
					}
				}
			}
		}
	}
}
MOTION
Frames: 9
Frame Time: 0.041667
54.770596 -13.443017 95.727898 -1.649892 -0.244651 2.115573 -2.424426 0.742432 0.491631 -0.853052 1.474006 1.016759 0.792147 1.486068 0.999026 28.594201 -15.996339 -1.864820 1.070942 8.911788 -4.379719 -16.135057 -9.509700 -17.730843 -137.153095 -185.829148 -82.194517 -0.000001 0.000011 -0.000002 44.684173 12.542558 4.534273 -0.000006 -0.000004 -3.009972 -5.000145 -8.000058 0.000000 23.624866 81.609593 -21.959765 -85.502378 110.365871 55.946353 -0.000004 0.000011 -0.000002 -0.019781 -2.790952 0.489862 0.000002 -0.000001 3.283437 -5.000160 8.001065 0.000128 2.593248 -174.692415 -1.102396 -179.999991 0.000005 -1.178995 172.775318 -2.216282 -0.686874 -0.000001 -0.000004 0.161584 71.160510 6.877203 2.012684 26.030561 -7.355620 0.847002 2.876424 175.385789 1.119290 -0.000005 -0.000004 -1.162830 -2.989401 1.880250 0.139254 -0.000002 -0.000003 -0.033230 69.311872 -6.950594 -1.987868 25.456953 7.355614 -0.000010 
54.777298 -13.461919 95.746391 -1.674307 -0.243285 2.107689 -2.419175 0.741704 0.490754 -0.842671 1.474130 1.014190 0.802527 1.486174 0.996455 28.599628 -15.969792 -1.865232 1.048812 8.891165 -4.374118 -16.135786 -9.643211 -17.737672 -137.139188 -185.758046 -82.336052 -0.000002 0.000012 -0.000001 44.383512 12.562675 4.487976 -0.000006 -0.000005 -3.009972 -5.000146 -8.000058 0.000003 23.444139 81.587607 -21.777705 -85.394925 110.356801 55.889819 -0.000003 0.000010 -0.000000 -0.019252 -2.736191 0.501137 0.000003 -0.000001 3.283509 -5.000158 8.001065 0.000132 2.617147 -174.686514 -1.088062 -179.999991 0.000005 -1.178995 172.782121 -2.227224 -0.687992 -0.000000 -0.000004 0.161019 71.145743 6.877700 2.011978 26.032576 -7.355621 0.850342 2.906653 175.390911 1.117281 -0.000005 -0.000004 -1.163250 -2.987840 1.880352 0.139286 -0.000002 -0.000003 -0.033221 69.309645 -6.950600 -1.985309 25.456953 7.355614 -0.000010 
54.790794 -13.464115 95.740295 -1.699385 -0.242438 2.099847 -2.413752 0.740981 0.489837 -0.831934 1.474325 1.011457 0.813264 1.486331 0.993724 28.609265 -15.942551 -1.863141 1.020107 8.869227 -4.365784 -16.136935 -9.777190 -17.745503 -137.125746 -185.690987 -82.481119 0.000000 0.000011 -0.000002 44.070638 12.585676 4.441106 -0.000007 -0.000003 -3.009969 -5.000144 -8.000058 -0.000002 23.256881 81.565231 -21.588959 -85.282562 110.348051 55.828969 -0.000004 0.000012 0.000000 -0.018697 -2.681300 0.512399 0.000004 -0.000001 3.283592 -5.000155 8.001067 0.000128 2.641846 -174.679629 -1.072624 -179.999991 0.000005 -1.180006 172.789661 -2.238184 -0.688083 0.000000 -0.000004 0.160410 71.130123 6.878201 2.011226 26.034601 -7.355623 0.853772 2.938097 175.396020 1.115610 -0.000005 -0.000005 -1.163660 -2.985539 1.880376 0.139300 -0.000002 -0.000003 -0.033212 69.307302 -6.950566 -1.982648 25.456948 7.355614 -0.000011 
54.781998 -13.447115 95.748901 -1.724893 -0.241973 2.091783 -2.408243 0.740236 0.488891 -0.821002 1.474469 1.008601 0.824197 1.486446 0.990859 28.622454 -15.913813 -1.858991 0.986315 8.845502 -4.355257 -16.138258 -9.910781 -17.753436 -137.112045 -185.624884 -82.627032 -0.000000 0.000013 -0.000001 43.750196 12.610724 4.394251 -0.000006 -0.000003 -3.009962 -5.000143 -8.000058 -0.000001 23.065938 81.542733 -21.396380 -85.167370 110.339377 55.765817 -0.000000 0.000011 -0.000004 -0.018124 -2.626260 0.523657 0.000000 0.000000 3.283661 -5.000158 8.001066 0.000127 2.667020 -174.672731 -1.056435 -179.999991 0.000005 -1.180006 172.797680 -2.250124 -0.689272 -0.000001 -0.000004 0.159769 71.113963 6.878696 2.010407 26.036623 -7.355624 0.857221 2.970423 175.402168 1.114265 -0.000005 -0.000004 -1.164060 -2.982657 1.880362 0.139299 -0.000002 -0.000003 -0.033203 69.305069 -6.950497 -1.979677 25.456947 7.355615 -0.000011 
54.793995 -13.458016 95.747581 -1.750625 -0.241755 2.083271 -2.402730 0.739440 0.487923 -0.810037 1.474493 1.005664 0.835163 1.486423 0.987924 28.638556 -15.882782 -1.853629 0.948944 8.819500 -4.343074 -16.139216 -10.043435 -17.760824 -137.097265 -185.556664 -82.772119 0.000000 0.000013 -0.000002 43.426438 12.636705 4.347794 -0.000008 -0.000004 -3.009958 -5.000149 -8.000059 -0.000001 22.874097 81.520480 -21.202791 -85.050663 110.330627 55.701268 -0.000002 0.000011 -0.000001 -0.017535 -2.571050 0.534911 0.000002 -0.000000 3.283740 -5.000160 8.001065 0.000130 2.692408 -174.664862 -1.039754 -179.999991 0.000005 -1.180006 172.806054 -2.263067 -0.689573 0.000000 -0.000004 0.159108 71.097406 6.879250 2.009622 26.038638 -7.355625 0.860611 3.003351 175.409285 1.113181 -0.000005 -0.000004 -1.164450 -2.979335 1.880326 0.139287 -0.000001 -0.000003 -0.033194 69.302726 -6.950464 -1.976617 25.456952 7.355614 -0.000011 
54.802097 -13.450819 95.715096 -1.776327 -0.241647 2.074045 -2.397298 0.738566 0.486946 -0.799201 1.474276 1.002685 0.845999 1.486168 0.984947 28.656766 -15.848407 -1.847576 0.909498 8.790751 -4.329764 -16.139462 -10.174402 -17.766890 -137.080558 -185.483199 -82.916659 -0.000001 0.000009 -0.000002 43.103971 12.662686 4.302054 -0.000012 -0.000004 -3.009960 -5.000143 -8.000060 -0.000001 22.684001 81.498732 -21.010823 -84.934550 110.321434 55.637191 -0.000001 0.000010 -0.000003 -0.016948 -2.515661 0.546173 0.000002 -0.000001 3.283810 -5.000157 8.001064 0.000125 2.717694 -174.656980 -1.022925 -179.999991 0.000006 -1.181003 172.814564 -2.275011 -0.690737 -0.000001 -0.000004 0.158437 71.080952 6.879798 2.008729 26.040561 -7.355621 0.863853 3.036539 175.416415 1.112224 -0.000005 -0.000004 -1.164840 -2.975753 1.880313 0.139269 -0.000001 -0.000003 -0.033186 69.300486 -6.950395 -1.973647 25.456952 7.355618 -0.000011 
54.807594 -13.455313 95.720100 -1.801767 -0.241512 2.063873 -2.392032 0.737586 0.485970 -0.788657 1.473730 0.999706 0.856543 1.485594 0.981972 28.676768 -15.810020 -1.841295 0.869479 8.758769 -4.315847 -16.138555 -10.303025 -17.770844 -137.061297 -185.401414 -83.057894 -0.000002 0.000010 -0.000002 42.787293 12.687584 4.257242 -0.000008 -0.000003 -3.009960 -5.000146 -8.000059 -0.000002 22.498665 81.477955 -20.823539 -84.820288 110.311667 55.574620 -0.000002 0.000010 -0.000004 -0.016362 -2.460072 0.557443 0.000001 -0.000001 3.283884 -5.000156 8.001065 0.000128 2.742592 -174.649098 -1.006266 -179.999991 0.000005 -1.181003 172.823033 -2.286966 -0.690902 -0.000001 -0.000003 0.157768 71.064717 6.880368 2.008028 26.042377 -7.355627 0.866893 3.069690 175.423546 1.111349 -0.000005 -0.000005 -1.165240 -2.972062 1.880369 0.139252 -0.000002 -0.000003 -0.033177 69.298334 -6.950299 -1.970663 25.456950 7.355616 -0.000011 
54.826096 -13.472116 95.729095 -1.826727 -0.241211 2.052507 -2.387017 0.736470 0.485003 -0.778567 1.472754 0.996767 0.866634 1.484580 0.979046 28.697695 -15.766669 -1.835687 0.830391 8.723090 -4.301852 -16.135934 -10.428568 -17.771869 -137.038484 -185.308141 -83.194040 -0.000001 0.000013 -0.000002 42.480840 12.710180 4.213916 -0.000008 -0.000002 -3.009949 -5.000144 -8.000060 0.000000 22.320836 81.458523 -20.643716 -84.709379 110.300862 55.514873 -0.000003 0.000011 -0.000003 -0.015789 -2.404251 0.568733 0.000001 -0.000001 3.283952 -5.000158 8.001065 0.000130 2.766796 -174.641216 -0.990084 -179.999991 0.000005 -1.181003 172.831271 -2.297919 -0.691945 -0.000001 -0.000004 0.157112 71.049226 6.880894 2.007274 26.044095 -7.355618 0.869640 3.102497 175.430677 1.110489 -0.000005 -0.000004 -1.165640 -2.968410 1.880505 0.139236 -0.000002 -0.000003 -0.033169 69.296210 -6.950273 -1.967890 25.456955 7.355615 -0.000011 
54.828297 -13.470516 95.721596 -1.850969 -0.240610 2.039714 -2.382348 0.735193 0.484059 -0.769092 1.471267 0.993910 0.876109 1.483056 0.976206 28.718982 -15.717457 -1.831223 0.793730 8.683239 -4.288306 -16.131356 -10.550371 -17.769424 -137.011436 -185.200306 -83.325296 -0.000001 0.000011 -0.000002 42.189098 12.729354 4.172240 -0.000007 -0.000002 -3.009949 -5.000146 -8.000059 -0.000000 22.152947 81.440717 -20.473772 -84.603975 110.288929 55.459777 -0.000001 0.000011 -0.000004 -0.015229 -2.348180 0.580040 0.000002 -0.000001 3.284031 -5.000159 8.001065 0.000125 2.790022 -174.633320 -0.974667 -179.999991 0.000005 -1.181003 172.839043 -2.308868 -0.692005 -0.000000 -0.000004 0.156480 71.034685 6.881410 2.006558 26.045612 -7.355615 0.872008 3.134642 175.436810 1.109505 -0.000005 -0.000004 -1.166060 -2.964979 1.880761 0.139229 -0.000002 -0.000003 -0.033161 69.294386 -6.950189 -1.965291 25.456948 7.355615 -0.000010 
